<?xml version="1.0" encoding="UTF-8" standalone="no"?>
<svg
   xmlns:dc="http://purl.org/dc/elements/1.1/"
   xmlns:cc="http://creativecommons.org/ns#"
   xmlns:rdf="http://www.w3.org/1999/02/22-rdf-syntax-ns#"
   xmlns:svg="http://www.w3.org/2000/svg"
   xmlns="http://www.w3.org/2000/svg"
   id="svg891"
   version="1.1"
   viewBox="0 0 11958.532 2606.5064"
   height="2606.5066mm"
   width="11958.533mm">
  <defs
     id="defs885" />
  <metadata
     id="metadata888">
    <rdf:RDF>
      <cc:Work
         rdf:about="">
        <dc:format>image/svg+xml</dc:format>
        <dc:type
           rdf:resource="http://purl.org/dc/dcmitype/StillImage" />
        <dc:title></dc:title>
      </cc:Work>
    </rdf:RDF>
  </metadata>
  <g
     transform="translate(13598.012,1810.352)"
     id="layer1">
    <path
       id="path14774-0"
       d="m -6880.5452,793.82492 c -3.5868,-1.55333 -6.8964,-3.19991 -7.3546,-3.65797 -1.5391,-1.53893 24.6932,-63.20914 26.8491,-63.11859 1.1698,0.0711 6.4897,2.38495 11.8205,5.1913 l 9.6921,5.10196 -15.3677,29.10704 c -8.4526,16.00834 -16.2116,29.35266 -17.2435,29.6537 -1.0314,0.29981 -4.8096,-0.72413 -8.3959,-2.27744 z m -1805.1949,-22.34607 c -13.1327,-3.78926 -24.4393,-11.07612 -34.4341,-22.19132 -7.9736,-8.86943 -17.3193,-23.75084 -15.7714,-25.11367 2.9663,-2.61086 35.3537,-21.75551 36.8054,-21.75551 1.0406,0 2.8112,2.01894 3.9351,4.48716 3.4547,7.58156 13.8607,18.18992 21.8343,22.25734 18.6914,9.53583 41.287,-5.61393 35.3235,-23.6836 -3.185,-9.65137 -7.4772,-14.35811 -31.8737,-34.95903 -44.0073,-37.16101 -55.9915,-53.84484 -55.8508,-77.76075 0.179,-30.5854 24.4569,-53.87335 58.4353,-56.05385 23.8125,-1.52803 43.2931,6.63316 62.2494,26.07944 l 9.438,9.68303 -8.4946,7.52505 c -4.6716,4.13829 -12.117,10.55325 -16.5438,14.25469 l -8.0499,6.73038 -9.8843,-9.29613 c -12.4249,-11.6844 -20.1208,-15.04013 -29.2104,-12.73346 -8.5638,2.17247 -14.653,9.9639 -12.9841,16.61357 1.8224,7.26022 10.0274,15.69277 39.5791,40.67591 39.0733,33.03197 48.7802,47.43506 48.9424,72.6208 0.121,18.49898 -4.3884,30.93125 -15.7053,43.31403 -13.3755,14.63462 -27.4637,20.53261 -50.8689,21.29428 -11.2517,0.36373 -21.2814,-0.37811 -26.8712,-1.98836 z m 571.9875,0 c -13.1338,-3.78926 -24.4402,-11.07612 -34.434,-22.19132 -7.9739,-8.86943 -17.3203,-23.75084 -15.7721,-25.11367 2.9658,-2.61086 35.3545,-21.75551 36.8054,-21.75551 1.0407,0 2.8115,2.01894 3.9356,4.48716 3.4541,7.58156 13.8608,18.18992 21.8342,22.25734 18.6907,9.53583 41.2865,-5.61393 35.3228,-23.6836 -3.185,-9.65137 -7.476,-14.35811 -31.8733,-34.95903 -44.0079,-37.16101 -55.9909,-53.84484 -55.8504,-77.76075 0.1774,-30.5854 24.4565,-53.87335 58.4346,-56.05385 23.8122,-1.52803 43.2938,6.63316 62.2498,26.07944 l 9.4386,9.68303 -8.4955,7.52505 c -4.6718,4.13829 -12.1171,10.55325 -16.5434,14.25469 l -8.0496,6.73038 -9.8847,-9.29613 c -12.4247,-11.6844 -20.1213,-15.04013 -29.2105,-12.73346 -8.5639,2.17247 -14.6526,9.9639 -12.9837,16.61357 1.8224,7.26022 10.0273,15.69277 39.5786,40.67591 39.0737,33.03197 48.7807,47.43506 48.9425,72.6208 0.1207,18.49898 -4.3884,30.93125 -15.7048,43.31403 -13.3766,14.63462 -27.4647,20.53261 -50.8696,21.29428 -11.251,0.36373 -21.2815,-0.37811 -26.8705,-1.98836 z m 386.4671,-0.12105 c -55.9667,-12.32053 -91.6636,-57.76905 -91.5228,-116.52706 0.079,-33.20777 11.1466,-60.32874 33.7567,-82.71751 29.8556,-29.5654 73.4479,-41.93318 116.2859,-32.99487 19.619,4.09392 45.9413,17.81893 60.0149,31.29378 l 11.7194,11.22088 -14.7725,14.14262 c -8.125,7.77839 -15.646,14.14172 -16.7125,14.14172 -1.0667,0 -6.1403,-3.77607 -11.2744,-8.39225 -33.9073,-30.4864 -81.3507,-30.96656 -111.1915,-1.12692 -34.919,34.9198 -26.8865,98.75038 15.3187,121.7217 32.3576,17.61162 66.9211,12.83188 95.9498,-13.26727 5.0922,-4.57741 10.0025,-8.32337 10.9128,-8.32337 0.9097,0 8.3126,6.69754 16.4506,14.88386 l 14.7962,14.8831 -7.2899,6.86257 c -11.1007,10.44939 -33.2381,24.86231 -44.8733,29.21608 -20.9135,7.82473 -54.7781,10.00009 -77.5681,4.98294 z m 1383.7168,-1.62298 c -11.5502,-3.82378 -18.2683,-7.8426 -25.2411,-15.09812 l -6.3647,-6.62181 6.3647,-7.66271 c 3.5002,-4.21461 7.083,-7.67828 7.9621,-7.69707 0.8788,0 5.4104,3.32195 10.0696,7.423 18.4996,16.28393 38.5006,14.85024 51.1002,-3.6622 7.2673,-10.6788 4.6608,-22.88712 -6.9779,-32.68037 -3.1342,-2.63692 -12.6208,-8.47239 -21.0814,-12.96729 -29.0879,-15.4532 -39.3447,-28.41079 -39.3447,-49.70294 0,-14.38294 4.5483,-24.57883 14.9287,-33.46429 19.6588,-16.82679 51.9265,-13.36446 72.5798,7.78732 l 6.8046,6.96796 -7.4542,7.27945 -7.4545,7.27917 -7.0841,-6.22026 c -19.5969,-17.20624 -40.3378,-16.6481 -48.8611,1.31438 -6.7695,14.26437 1.355,25.34337 30.4248,41.49087 30.5533,16.9702 40.3373,29.25045 40.3373,50.62634 0,18.55197 -9.7645,33.97218 -27.1897,42.93835 -9.5246,4.90117 -32.5179,6.3117 -43.5184,2.67022 z m 122.7041,0 c -11.5513,-3.82378 -18.2691,-7.8426 -25.2422,-15.09812 l -6.3639,-6.62181 6.3639,-7.66271 c 3.5008,-4.21461 7.0837,-7.67828 7.9623,-7.69707 0.8791,0 5.4106,3.32195 10.0702,7.423 18.4991,16.28393 38.5004,14.85024 51.0997,-3.6622 7.2673,-10.6788 4.6609,-22.88712 -6.9782,-32.68037 -3.1331,-2.63692 -12.6208,-8.47239 -21.0812,-12.96729 -29.0877,-15.4532 -39.3445,-28.41079 -39.3445,-49.70294 0,-14.38294 4.5483,-24.57883 14.9288,-33.46429 19.6584,-16.82679 51.926,-13.36446 72.5807,7.78732 l 6.8038,6.96796 -7.4542,7.27945 -7.4548,7.27917 -7.0841,-6.22026 c -19.5968,-17.20624 -40.3373,-16.6481 -48.8612,1.31438 -6.7694,14.26437 1.3552,25.34337 30.4257,41.49087 30.5527,16.9702 40.3366,29.25045 40.3366,50.62634 0,18.55197 -9.7646,33.97218 -27.1894,42.93835 -9.5246,4.90117 -32.5186,6.3117 -43.518,2.67022 z m 161.8758,-0.38553 c -20.3733,-5.48657 -37.4814,-18.27486 -49.6673,-37.12786 -10.1349,-15.68034 -13.8389,-31.21276 -12.6885,-53.20131 0.8145,-15.57663 1.8207,-19.74278 7.8124,-32.35995 11.8232,-24.89669 33.5676,-42.427 59.354,-47.85088 42.6449,-8.96906 81.7099,9.85397 99.8871,48.13053 6.1953,13.04527 7.101,16.81879 7.7849,32.46415 0.5637,12.94017 -0.1078,20.97053 -2.515,29.85189 -5.7176,21.12455 -23.8462,44.06374 -42.237,53.44602 -18.3015,9.33657 -47.2075,12.17336 -67.7306,6.64741 z m 53.2948,-25.24297 c 13.5208,-6.6559 22.8382,-16.5147 29.7282,-31.45504 3.5547,-7.70844 4.2797,-12.49936 4.2615,-28.16534 0,-16.01166 -0.699,-20.24778 -4.4818,-27.90123 -6.6504,-13.45547 -19.67,-26.86612 -31.9245,-32.88345 -14.5276,-7.13422 -36.3719,-7.55155 -49.7703,-0.95125 -14.1134,6.95299 -25.3235,18.11951 -32.1881,32.06317 -5.6999,11.57884 -6.2042,14.06495 -6.1964,30.57677 0,15.81709 0.6351,19.25609 5.2517,28.66624 16.4101,33.46068 52.5414,46.18719 85.3197,30.05013 z m 151.0517,26.99117 c -24.2831,-6.1801 -37.5328,-15.72652 -46.0812,-33.20187 -8.5441,-17.46535 -9.6069,-26.84914 -9.6069,-84.81564 v -52.59897 h 12.2701 12.2706 v 54.44483 c 0,59.13324 0.9616,66.45795 10.3402,78.75395 2.7476,3.6024 9.4029,8.85715 14.789,11.67654 8.2764,4.33301 12.1334,5.12799 24.8963,5.13163 17.0668,0 25.7432,-3.44173 36.2429,-14.39594 12.1215,-12.64597 12.5961,-15.42188 13.4122,-78.50686 l 0.7384,-57.10415 h 12.2519 12.252 l -0.7673,57.10415 c -0.7061,52.60244 -1.0941,58.10053 -4.9284,69.74269 -5.5766,16.93337 -18.2923,31.00181 -34.6724,38.36289 -10.0545,4.51774 -14.7737,5.41584 -30.7541,5.8518 -10.3828,0.28542 -20.5762,0.0849 -22.6533,-0.44216 z M -9644.2915,655.22541 v -113.2646 h 23.5564 23.5549 l 0.5146,36.25233 0.5132,36.25264 28.7609,-36.25264 28.7603,-36.25233 h 27.6274 27.6269 l -6.5196,8.02295 c -8.3116,10.22707 -61.2989,77.5792 -68.0402,86.48497 l -5.0925,6.72885 29.426,42.35294 c 16.1842,23.29416 35.7547,51.48507 43.4904,62.64615 l 14.0642,20.29366 -27.0156,-0.0711 -27.0168,-0.0728 -33.0358,-47.52835 -33.0356,-47.52847 -0.5068,47.58012 -0.5059,47.58011 h -23.5652 -23.5643 z m 266.1722,111.78141 c 0,-0.81618 19.3399,-51.57245 42.9782,-112.79323 l 42.9788,-111.3088 23.5645,-0.52091 23.5652,-0.5209 8.8095,23.17363 c 4.8451,12.74648 24.4902,63.7373 43.655,113.31487 l 34.8455,90.13946 h -23.8986 -23.8976 l -8.7229,-23.12426 -8.722,-23.12561 -45.1132,-0.50682 -45.1121,-0.50621 -9.1175,23.62894 -9.1168,23.62955 h -23.348 c -12.8416,0 -23.348,-0.66339 -23.348,-1.4832 z m 137.8052,-88.49362 c 0,-2.62829 -27.1279,-70.47936 -28.1669,-70.44952 -0.8336,0 -14.6991,34.52412 -28.1509,70.04096 -0.342,0.91401 12.184,1.6616 27.8447,1.6616 15.6608,0 28.4731,-0.56347 28.4731,-1.25304 z m 200.1007,-23.28779 v -113.2646 l 22.1818,0.0183 22.1812,0.0183 47.1931,72.0475 47.1932,72.04751 0.4924,-72.05342 0.4923,-72.05265 h 22.6314 22.6297 v 113.26458 113.26475 l -22.1803,-0.0726 -22.1819,-0.0728 -47.1931,-72.08567 -47.1941,-72.08567 -0.4923,72.1264 -0.4924,72.12639 h -22.6306 -22.6312 z m 554.9972,111.78141 c 0,-0.81618 19.3413,-51.57245 42.9797,-112.79323 l 42.9781,-111.3088 23.5645,-0.52091 23.5643,-0.5209 8.8104,23.17363 c 4.8459,12.74648 24.4902,63.7373 43.6542,113.31487 l 34.8459,90.13946 h -23.8984 -23.8982 l -8.7222,-23.12426 -8.7221,-23.12561 -45.1122,-0.50682 -45.1139,-0.50621 -9.1166,23.62894 -9.1167,23.62955 h -23.3479 c -12.8418,0 -23.3489,-0.66339 -23.3489,-1.4832 z m 137.8059,-88.49362 c 0,-2.62829 -27.1279,-70.47936 -28.1668,-70.44952 -0.8344,0 -14.6998,34.52412 -28.151,70.04096 -0.3427,0.91401 12.1839,1.6616 27.8441,1.6616 15.6606,0 28.4737,-0.56347 28.4737,-1.25304 z m 870.2504,-23.28779 v -113.2646 h 23.5971 23.5967 v 113.2646 113.26492 h -23.5967 -23.5971 z m 198.2139,20.76506 v -92.49956 h -19.8213 -19.8217 v -20.76506 -20.76504 h 64.1837 64.1831 v 20.76504 20.76506 h -20.7651 -20.7649 v 92.49956 92.49986 h -23.5973 -23.5965 z m 252.9578,43.69925 v -48.80045 l -32.1639,-61.66674 c -17.6903,-33.91658 -32.6473,-62.92612 -33.2375,-64.46414 -0.9142,-2.38268 2.5435,-2.79758 23.3058,-2.79758 h 24.3788 l 18.7687,36.12256 c 10.3235,19.8674 19.645,37.33365 20.7151,38.81338 1.4945,2.06513 6.534,-6.31079 21.7096,-36.08484 l 19.7629,-38.77477 24.0682,-0.0728 c 13.2382,0 24.0692,0.35662 24.0692,0.84211 0,0.48514 -14.8657,29.65186 -33.0354,64.81785 l -33.0355,63.93765 v 48.44659 48.4467 h -22.6528 -22.6532 v -48.80058 z m 306.6813,44.64097 c 0.9389,-4.14027 31.2251,-218.65557 31.2251,-221.16196 0,-0.6637 1.4861,-1.15871 3.3036,-1.09966 2.4442,0.0788 14.9775,23.70755 48.1985,90.866 24.6912,49.91706 45.2153,90.43125 45.6082,90.03179 0.3921,-0.39962 20.3021,-41.0766 44.243,-90.39445 32.0194,-65.9575 44.4529,-89.81556 47.023,-90.22653 3.2206,-0.51377 4.713,8.04611 19.0841,109.48913 8.5745,60.52649 16.0057,111.53443 16.513,113.35183 0.8138,2.91312 -0.5993,3.30349 -11.9497,3.30349 h -12.8711 l -10.1849,-75.98212 c -5.6005,-41.78979 -10.758,-76.63737 -11.4598,-77.43885 -0.6993,-0.80119 -18.3835,33.39009 -39.2924,75.98196 -31.5176,64.19734 -38.6754,77.43901 -41.863,77.43901 -3.1743,0 -10.735,-13.73318 -43.3878,-78.81302 -21.7498,-43.3475 -39.6266,-77.53955 -39.7275,-75.98213 -0.1007,1.55755 -4.6432,36.81124 -10.0947,78.34146 l -9.9134,75.50955 -12.7183,0.55664 c -12.4093,0.54923 -12.6944,0.45668 -11.7359,-3.77503 z m 293.6222,-79.84485 v -84.00477 h 12.27 12.2699 v 84.00494 84.00447 h -12.2699 -12.27 z m 702.2411,0 v -84.00477 h 12.2706 12.2697 v 9.66047 9.6612 l 7.911,-7.91028 c 10.1025,-10.10293 16.5339,-13.36687 28.841,-14.63763 10.368,-1.06968 23.6559,2.03832 23.6559,5.53428 0,1.10887 -2.336,5.71991 -5.1914,10.24842 -3.5,5.55034 -6.1136,7.87834 -8.023,7.14469 -7.9109,-3.03987 -13.1571,-2.81667 -20.3776,0.86629 -9.6261,4.91072 -16.3412,13.57465 -21.5839,27.84493 -3.7202,10.12714 -4.1254,15.59085 -4.8368,65.32394 l -0.7769,54.2731 h -12.0792 -12.0794 z m 98.163,0 v -84.00477 h 12.27 12.2705 v 84.00494 84.00447 h -12.2705 -12.27 z M -6425.54,563.50191 c -4.8363,-4.06894 -5.8084,-6.25264 -5.8084,-13.04662 0,-6.79307 0.9721,-8.97677 5.8084,-13.04601 6.5427,-5.50565 14.3454,-6.27626 22.2342,-2.19732 5.071,2.62267 9.7127,9.90666 9.7127,15.24333 0,5.33758 -4.6417,12.62157 -9.7127,15.24441 -7.8888,4.07877 -15.6915,3.30755 -22.2342,-2.19779 z m 800.4038,0 c -4.8359,-4.06894 -5.8085,-6.25264 -5.8085,-13.04662 0,-6.79307 0.9726,-8.97677 5.8085,-13.04601 6.5425,-5.50565 14.3458,-6.27626 22.2341,-2.19732 5.0723,2.62267 9.7126,9.90666 9.7126,15.24333 0,5.33758 -4.6403,12.62157 -9.7126,15.24441 -7.8883,4.07877 -15.6916,3.30755 -22.2341,-2.19779 z"
       style="fill:#000000;stroke-width:1.88774598" />
    <path
       id="rect9724-8-3"
       d="m -7182.8187,-1810.352 -5.7436,171.4579 -9.7855,9.7815 h -28.5682 l -48.1028,27.7719 h -115.3156 v 174.449 h -96.6505 v 273.8558 l -27.9174,16.119 v 201.6672 l -26.9797,15.57345 V 298.07513 h -28.1317 V -898.69869 h -12.0289 v -56.86162 h -278.8433 v -16.20406 l -120.2832,-94.03923 v -70.1836 h -15.5897 -15.5856 v 70.1836 l -120.2872,94.03923 v 16.20406 h -62.3305 v 56.86162 h -12.0246 V 298.07513 h -28.1357 v -677.56597 l -13.2292,-22.92978 v -548.52382 h -9.2761 v -20.35914 h -33.8633 v 20.35914 h -9.0172 v -14.3731 h -29.6718 v 14.3731 h -15.8326 v -158.10746 h -32.5816 v -20.3592 h -16.7697 v -56.3119 h -27.5535 v -82.7702 l -8.4238,-2.2513 v -190.4793 h -23.924 v -35.5769 l -51.7971,-53.0662 h -8.7302 l -51.7971,53.0662 v 35.5769 h -23.9248 v 190.4793 l -8.4269,2.2513 v 82.7702 h -27.5496 v 56.3119 h -16.7705 v 20.3592 h -9.8619 v -47.9128 h -120.3801 v 754.54408 l -13.233,22.92978 v 677.56597 h -28.1318 v -716.75232 h -21.0707 v -131.35405 h -12.3525 v -156.03801 h -13.471 v -119.99631 h -20.5774 v -196.06504 h -8.5989 v 196.06504 h -43.7925 v -87.53164 h 9.527 v -31.53503 h -46.0461 v -19.05356 h -31.5308 v 19.05356 h -35.1525 v -127.00897 h -10.3734 v 127.00897 h -46.5647 v 31.53503 h 11.9111 v 87.53164 h -100.1527 v -161.14293 h -10.1833 v 161.14293 h -17.4085 v 119.99631 h -13.4836 v 156.03801 h -12.3398 v 131.35405 h -21.0705 v 716.75232 h -21.7501 c 0.2188,-19.20801 1.2385,-110.02789 1.7142,-200.822438 0.2426,-46.460801 0.3381,-91.9981615 0.097,-126.111685 -0.1209,-17.056774 -0.3254,-31.252845 -0.6388,-41.320488 -0.1574,-5.03381 -0.3388,-9.022803 -0.5623,-11.90341 -0.1113,-1.440308 -0.2275,-2.585903 -0.3883,-3.573051 -0.081,-0.493589 -0.159,-0.935044 -0.3348,-1.503589 -0.1336,-0.427022 -0.3007,-1.163883 -1.2855,-2.097773 0.089,-0.415471 0.2816,-1.170168 0.7636,-2.130053 1.1296,-2.248541 2.8939,-4.506769 2.8939,-4.506769 l 1.9847,-2.481723 -6.3494,-11.006131 h -137.5266 v -43.0908 c 0.3865,-0.55898 1.1487,-1.57828 1.9687,-2.99912 1.505,-2.60724 1.8892,-5.06069 2.4699,-7.59071 0.5798,-2.53001 0.9776,-4.72903 0.9776,-4.72903 l 0.9824,-5.47681 h -39.8003 v -55.59244 c 0.2705,-0.32147 0.2991,-0.30358 0.5982,-0.70734 0.4804,-0.64999 0.9902,-1.38492 1.443,-2.36857 0.4518,-0.98363 1.108,-2.3181 0.517,-4.52694 v -0.004 c 0.2139,0.79782 0,-0.16472 -0.016,-1.01855 -0.023,-0.85381 0,-1.95464 0.016,-3.01528 0.048,-1.88186 0.1154,-3.24952 0.1336,-3.62154 l 2.057,-7.67559 -14.8582,-8.57291 h -9.0339 v -13.80302 h -19.8328 v -74.929 l -6.8958,-3.98125 -4.7854,-1.2813 v -15.84025 h -20.3309 v -88.37599 h -5.9134 v -8.70224 h -11.067 l -33.2283,-226.46429 c 0.521,-0.64686 0.7119,-0.85065 1.4389,-1.81888 0.6967,-0.92924 1.4039,-1.9101 2.0166,-2.88995 0.3061,-0.48991 0.5917,-0.96965 0.8606,-1.54403 0.2697,-0.5744 0.6634,-1.07911 0.6634,-2.70804 0,-2.2885 -0.5251,-2.65378 -0.93,-3.58524 -0.4047,-0.93139 -0.8789,-1.87041 -1.3458,-2.75655 -0.2283,-0.4332 -0.2403,-0.425 -0.4526,-0.81238 0.8169,-1.72454 0.9601,-3.30717 0.9863,-4.7008 0.032,-1.95798 -0.093,-3.92355 -0.093,-5.56169 0,-4.51863 -0.9864,-7.39139 -0.9864,-8.60922 v -8.21316 c 0,-0.0342 0.093,-1.29348 0.1449,-2.17461 0.2458,0.43647 0.8844,1.39857 0.8844,1.39857 l 2.8908,5.77583 4.5634,-4.5673 c 0,0 4.3122,-3.38234 4.3122,-9.44191 0,-3.91431 -1.1654,-7.10781 -3.2009,-11.17995 v -0.008 c -1.5512,-3.10463 -3.0919,-8.88818 -3.0919,-8.88818 l -0.1662,-0.65879 -0.3438,-0.58608 c 0,0 -0.9552,-1.60888 -2.0252,-3.54071 -1.0698,-1.9319 -2.2972,-4.39437 -2.5263,-5.02413 v -0.008 c -0.7604,-2.08965 -0.9497,-4.01861 -0.9497,-5.29491 0,-2.18852 -0.5171,-3.57323 -1.0262,-5.2747 -0.5099,-1.70147 -1.069,-3.2763 -1.5646,-4.4339 -0.6753,-1.57556 -1.9257,-3.07967 -3.3632,-3.9409 -1.4365,-0.86124 -2.811,-1.13106 -3.9486,-1.2934 -0.9242,-0.13213 -3.5159,-0.66523 -4.8339,-0.9337 -0.9482,-0.85677 -3.391,-3.03925 -4.3782,-4.1672 -1.3442,-1.53689 -5.0615,-6.55847 -5.7797,-7.63519 -0.4947,-0.74279 -1.2688,-1.78181 -2.4976,-3.45178 -1.229,-1.66995 -2.7715,-3.74759 -4.2804,-5.77996 -3.0171,-4.06466 -5.9094,-7.94232 -5.9094,-7.94232 l -2.0085,-2.69601 -12.8982,4.29256 4.1347,7.59471 4.3129,-1.09939 -0.2299,0.58203 1.2362,-0.41229 c 0.2498,0.33465 0.5648,0.75862 0.894,1.2005 -1.5909,1.73566 -3.0267,3.83788 -1.8152,5.41207 2.1128,2.74548 4.5755,6.12351 5.5213,7.73224 2.3386,3.97557 2.0172,3.93158 3.3186,7.5745 0.494,1.38217 -0.128,6.43692 0.7676,12.40868 0.4343,2.89097 1.4669,5.15236 2.4858,6.4145 1.0189,1.26214 1.1637,1.15443 1.8876,2.60303 1.4795,2.96121 0.9672,4.13688 1.2368,9.0013 0.2594,4.67659 0.7319,6.99859 0.7319,10.81618 v 11.07082 c 0,2.65688 0.091,4.02696 0.3437,5.47269 0.2521,1.4458 0.583,2.82026 1.1836,6.78637 0.6387,4.21548 0.6237,5.7752 2.4214,7.8696 1.7984,2.09443 0.1924,-0.41935 0.5416,0.48508 0.2737,0.71201 0.7922,3.23803 1.0508,5.27875 0.2584,2.04065 0.3723,3.70234 0.3723,3.70234 l 0.032,0.37998 -0.6347,0.63454 -0.2983,0.50931 c 0,0 -0.9147,1.55416 -1.8479,3.32649 -0.466,0.88613 -0.9401,1.82516 -1.3458,2.75655 -0.4049,0.93147 -0.9339,1.29682 -0.9339,3.58517 0,1.62901 0.3978,2.12966 0.6674,2.70405 0.2697,0.57439 0.5506,1.05818 0.8567,1.5481 0.6126,0.97983 1.3237,1.9607 2.0213,2.88994 0.7254,0.96775 0.9132,1.17209 1.435,1.81888 l -33.2252,226.46429 h -11.0702 v 8.70243 h -5.9134 v 88.37641 h -20.3309 v 15.84027 l -4.7853,1.28127 -6.8958,3.97723 v 74.93301 h -19.8336 v 13.80315 h -9.0381 l -14.8538,8.5729 2.0622,7.69174 c 0.019,0.38265 0.087,1.73192 0.1278,3.60538 0.019,1.06064 0.039,2.1615 0.019,3.01526 -0.019,0.85379 -0.2307,1.81637 -0.019,1.01858 v 0.004 c -0.5919,2.20894 0.067,3.5392 0.5209,4.52291 0.4526,0.98371 0.9581,1.72259 1.4386,2.37258 0.2979,0.4021 0.3286,0.38277 0.5987,0.70332 v 55.59649 h -39.8 l 0.985,5.47677 c 0,0 0.3949,2.19899 0.9744,4.72906 0.5805,2.53005 0.9639,4.98323 2.4697,7.59071 0.8217,1.42312 1.5866,2.44478 1.972,3.00314 v 43.08677 h -137.5298 l -6.3454,11.006127 1.9806,2.481743 c 0,0 1.7644,2.258218 2.8945,4.50674 0.4814,0.960472 0.6784,1.715005 0.7668,2.130072 -0.9831,0.93342 -1.1531,1.670905 -1.2848,2.097773 -0.1749,0.568555 -0.2556,1.005964 -0.3354,1.499524 -0.1614,0.987158 -0.2767,2.136808 -0.3882,3.577107 -0.223,2.880617 -0.4046,6.869619 -0.5612,11.903429 -0.3143,10.067625 -0.519,24.263711 -0.6391,41.320477 -0.2412,34.1135087 -0.1461,79.650886 0.097,126.111698 0.4757,90.79269 1.4933,181.60926 1.7105,200.81838 h -21.992 v -69.82874 l -2.7773,-10.37156 v -59.08468 l 3.4846,-6.04266 -20.9734,-37.05625 h -234.5341 V 22.085222 h 14.593 l 4.833,-18.0471154 -15.225,-15.2259136 v -21.292785 l -18.851,-5.052403 -0.586,-2.174542 3.941,-2.275596 -4.256,-15.888761 h -37.606 v -11.127368 h -62.06 l -3.764,14.033516 h -170.261 l -7.502,-2.008842 -9.344,-2.505966 h -8.23 l -9.798,2.623183 -6.341,3.666024 h -81.04 -81.041 l -6.345,-3.666024 -9.794,-2.623183 h -8.23 l -9.344,2.505966 -7.502,2.008842 h -170.265 l -3.759,-14.033516 h -62.064 v 11.127368 h -37.602 l -4.257,15.888761 3.937,2.275596 -0.581,2.174542 -18.852,5.052403 v 21.292785 l -15.226,15.2259136 4.834,18.0471154 h 14.591 v 93.594518 h -234.531 l -20.978,37.05625 3.489,6.04265 v 59.08467 l -2.781,10.37157 v 43.20803 h -30.699 l -14.324,-671.35354 -3.78,-1.62079 v -76.8933 l -6.761,-1.69354 -1.023,-20.94115 -1.37,-1.28534 c -10.168,-9.55384 -22.377,-18.25265 -39.333,-23.29759 v -7.0693 h -27.981 v 7.0693 c -16.957,5.04466 -29.168,13.74292 -39.337,23.29759 l -1.366,1.28534 -1.027,20.94115 -6.758,1.69354 v 76.89333 l -3.783,1.6208 -14.32,671.35355 h -49.191 V 83.623386 l 4.508,-7.804937 -3.23,-12.044891 -5.064,-8.775 V -70.94743 c 0.233,-0.245309 0.251,-0.191427 0.493,-0.485045 1.116,-1.35531 3.019,-3.609694 2.036,-7.279449 0.102,0.376041 -0.122,-1.799898 -0.05,-3.391176 0.06,-1.591298 0.194,-2.954641 0.194,-2.954641 l 0.284,-2.978897 -7.777,-4.490548 -3.015,-11.248654 31.741,-52.18917 -31.055,-21.07048 -4.247,-2.45346 v -39.85729 c 0.649,-0.44496 0.768,-0.45847 1.568,-1.09939 0.973,-0.78072 1.994,-1.66965 2.938,-2.80103 0.945,-1.13142 2.115,-2.51192 2.115,-5.12516 0,0.38699 0.549,-2.74959 1.232,-4.98773 0.683,-2.23813 1.375,-4.18336 1.375,-4.18336 l 2.202,-6.20838 h -19.389 -100.114 l -13.484,-3.61348 h -112.187 -112.184 l -13.483,3.61348 h -100.119 -19.385 l 2.204,6.20838 c 0,0 0.691,1.94525 1.374,4.18336 0.683,2.23813 1.232,5.37497 1.232,4.98773 0,2.6131 1.17,3.99374 2.115,5.12516 0.944,1.13138 1.964,2.02031 2.938,2.80103 0.801,0.64216 0.919,0.65809 1.568,1.10344 v 39.85324 l -4.247,2.45346 -31.055,21.07048 31.738,52.18917 -3.012,11.248654 -7.777,4.490548 0.284,2.978897 c 0,0 0.127,1.363429 0.194,2.954641 0.06,1.591211 -0.157,3.767611 -0.05,3.391176 -0.984,3.669995 0.921,5.924081 2.037,7.279449 0.242,0.293676 0.26,0.239736 0.493,0.485045 V 54.998558 l -5.065,8.775 -3.229,12.044891 4.507,7.804937 V 296.98784 l -1.083,1.08729 h -50.88 v -34.02485 l 6.722,-5.29489 v -15.81601 l -3.885,-3.0678 v -13.87589 l 1.856,-4.37738 v -12.65928 l -2.619,-2.06947 c 0.04,-1.16682 0.07,-1.83985 0.113,-3.88831 0.03,-1.65559 0.05,-3.39689 0.02,-4.93922 -0.02,-1.5423 -0.02,-2.65907 -0.295,-4.10253 0.128,0.65062 0.146,-0.9806 0.625,-2.61512 0.482,-1.63452 1.282,-3.00371 1.282,-5.78397 v -11.57604 l -21.822,-7.98682 h -35.363 l -5.218,-61.90997 h -47.395 V 19.639917 l 14.239,-11.2243919 c 1.342,-0.1640068 3.11,-0.5955842 4.834,-1.6774113 3.438,-2.1558326 6.273,-6.96550494 6.273,-14.0537089 0,-6.5295509 -0.975,-16.1603269 -1.446,-24.8739259 -0.236,-4.356817 -0.342,-8.46048 -0.179,-11.592225 0.165,-3.131706 1.104,-5.416146 0.725,-4.898778 4.583,-6.259705 8.009,-16.297671 5.65,-28.321681 -1.182,-6.030404 -3.354,-9.831515 -5.695,-12.105542 -1.17,-1.137004 -2.36,-1.867032 -3.346,-2.299838 -0.986,-0.432788 -2.155,-0.61843 -2.155,-0.61843 l -0.271,-0.03239 h -120.021 v 16.066609 l 3.718,8.791158 v 12.469308 l -4.461,6.103279 v 18.30582 l 3.165,7.50178 c -99.446,101.090621 -223.281,154.345871 -359.233,184.913461 h -93.858 v -28.51568 c 15.37,-10.13652 24.758,-23.21449 24.774,-37.480664 v -0.004 c 0,-17.362873 -13.205,-32.182066 -32.776,-42.440101 -19.572,-10.257994 -46.061,-16.402414 -75.269,-16.402072 -29.209,0 -55.693,6.144188 -75.264,16.402072 -19.571,10.257924 -32.775,25.077387 -32.776,42.440101 v 0.004 0.0091 c 0.04,14.245734 9.425,27.295674 24.772,37.415964 v 28.57231 h -93.857 c -135.957,-30.56759 -259.789,-83.822845 -359.236,-184.91345 l 3.165,-7.501797 v -18.30582 l -4.463,-6.103278 V -67.1996 l 3.719,-8.791177 v -16.06659 h -120.024 l -0.267,0.03239 c 0,0 -1.169,0.185632 -2.154,0.61842 -0.986,0.432835 -2.178,1.162882 -3.347,2.299857 -2.34,2.273969 -4.511,6.075244 -5.695,12.105523 -2.358,12.024103 1.068,22.062059 5.651,28.321684 -0.379,-0.517383 0.56,1.766986 0.723,4.898787 0.164,3.131793 0.06,7.235385 -0.178,11.592224 -0.471,8.713632 -1.446,18.344487 -1.446,24.8739198 0,7.08759084 2.837,11.8976928 6.273,14.0537157 1.724,1.0818904 3.494,1.5134217 4.835,1.6774102 l 14.239,11.2243943 v 84.447652 h -47.4 l -5.214,61.90997 h -35.363 l -21.822,7.98681 v 11.57605 c 0,2.77979 0.802,4.14944 1.281,5.78399 0.481,1.6345 0.5,3.26537 0.627,2.61509 -0.283,1.44346 -0.27,2.56024 -0.295,4.10254 -0.02,1.54232 0,3.28363 0.02,4.93922 0.04,2.04845 0.07,2.72151 0.113,3.88834 l -2.619,2.06944 v 12.65928 l 1.855,4.37738 v 13.87588 l -3.884,3.06782 v 15.816 l 6.722,5.29489 v 34.02484 h -81.635 v 102.36546 4.65225 h 9.309 v -4.65225 -93.05694 h 81.635 v -47.84816 l -6.722,-5.2949 v -6.79042 l 3.884,-3.06781 v -20.27915 l -1.855,-4.3774 v -6.25687 l 2.785,-2.19476 -0.102,-2.37665 c 0,0 -0.122,-2.89211 -0.183,-6.07499 -0.03,-1.59144 -0.04,-3.25405 -0.02,-4.61586 0.02,-1.36183 0.158,-2.65063 0.122,-2.45747 0.617,-3.15113 -0.277,-5.14923 -0.829,-7.02892 -0.552,-1.87965 -0.905,-3.91168 -0.905,-3.16076 v -5.0726 l 14.162,-5.18174 h 42.275 l 5.214,-61.90997 h 48.147 V 15.125069 l -20.44,-16.11106511 -1.896,0.21016554 c 0,0 -0.452,0.037459 -1.102,-0.37183323 -0.654,-0.4092414 -1.909,-1.1820516 -1.909,-6.1679563 0,-5.5447789 0.944,-15.3574569 1.43,-24.3727539 0.244,-4.507616 0.379,-8.839113 0.184,-12.582463 -0.197,-3.74335 -0.216,-6.772195 -2.511,-9.906717 -3.081,-4.20883 -5.864,-11.64779 -4.025,-21.030077 v -0.0038 c 0.918,-4.669953 2.328,-6.51912 3.047,-7.218849 0.255,-0.246722 0.331,-0.267201 0.424,-0.319286 h 109.573 v 4.870491 l -3.718,8.795194 v 17.392355 l 4.461,6.103288 v 13.382755 l -4.862,11.523498 2.151,2.214982 c 101.492,104.248166 228.304,158.740643 366.505,189.755633 l 0.499,0.11317 h 104.25 v -42.81162 l -2.218,-1.3621 c -15.099,-9.26441 -22.52,-20.38209 -22.555,-31.142933 0,-12.561252 9.945,-24.834265 27.789,-34.18649 17.847,-9.35419 43.052,-15.339066 70.944,-15.339066 27.889,-3.27e-4 53.1,5.984748 70.947,15.339066 17.848,9.354309 27.789,21.63098 27.789,34.194576 -0.02,10.779097 -7.434,21.912967 -22.555,31.191407 l -2.218,1.36215 v 42.75534 h 104.249 l 0.5,-0.11319 c 138.2,-31.01499 265.009,-85.507423 366.5,-189.755625 l 2.155,-2.210925 -4.862,-11.527555 v -13.382756 l 4.458,-6.103286 v -17.392356 l -3.714,-8.795195 v -4.870491 h 109.573 c 0.09,0.05209 0.168,0.07265 0.423,0.319286 0.72,0.699931 2.131,2.545302 3.047,7.21885 1.842,9.384371 -0.943,16.824765 -4.025,21.034144 -2.295,3.134505 -2.314,6.163296 -2.511,9.906694 -0.196,3.74342 -0.06,8.074829 0.184,12.582486 0.487,9.015328 1.431,18.828087 1.431,24.3727299 0,4.9865246 -1.256,5.7588821 -1.909,6.1679803 -0.651,0.40905205 -1.102,0.37183326 -1.102,0.37183326 l -1.896,-0.21017323 -20.44,16.11107277 v 98.270876 h 48.147 l 5.214,61.90999 h 42.276 l 14.161,5.18174 v 5.07258 c 0,-0.7514 -0.353,1.28114 -0.906,3.16078 -0.551,1.87967 -1.445,3.87743 -0.828,7.0289 -0.04,-0.19308 0.102,1.09564 0.123,2.45747 0.02,1.3618 0,3.02444 -0.02,4.61586 -0.06,3.18289 -0.178,6.07499 -0.178,6.07499 l -0.103,2.37665 2.786,2.19476 v 6.25686 l -1.856,4.37741 v 20.27827 l 3.886,3.06781 v 6.79042 l -6.723,5.2949 v 47.84816 h 64.044 l 6.537,-6.53982 V 81.129524 l -3.824,-6.624703 1.911,-7.138007 5.699,-9.874405 V -75.1106 l -1.779,-1.398497 c 0,0 -0.467,-0.392685 -0.836,-0.840723 -0.368,-0.448029 0.19,-0.522005 -0.229,1.046873 v 0.0038 c 0.665,-2.477726 0.443,-4.299447 0.367,-6.180096 0,-0.239169 -0.02,-0.213646 -0.03,-0.440562 l 6.017,-3.471995 5.046,-18.81913 -29.207,-48.02197 23.446,-15.91301 8.61,-4.97155 v -50.26117 l -2.248,-1.35809 c 0,0 -1.441,-0.87929 -2.804,-1.97244 -0.682,-0.54659 -1.32,-1.14746 -1.616,-1.50359 -0.298,-0.35615 0.05,-0.46025 0.05,0.84071 0,-2.37194 -0.691,-4.17098 -1.294,-6.07096 h 6.561 101.343 l 13.483,-3.61348 h 110.959 110.963 l 13.484,3.61348 h 101.338 6.564 c -0.602,1.89998 -1.293,3.6992 -1.293,6.07096 0,-1.30109 0.346,-1.19686 0.05,-0.84071 -0.298,0.35613 -0.936,0.957 -1.617,1.50359 -1.364,1.09318 -2.806,1.97244 -2.806,1.97244 l -2.247,1.35809 v 50.26117 l 8.609,4.97155 23.448,15.91301 -29.207,48.02197 5.044,18.81913 6.018,3.471995 c -0.02,0.226916 -0.02,0.201354 -0.03,0.440562 -0.08,1.879371 -0.299,3.701198 0.364,6.17605 -0.419,-1.568638 0.138,-1.494959 -0.23,-1.046844 -0.369,0.448096 -0.837,0.840724 -0.837,0.840724 l -1.779,1.398486 V 57.492369 l 5.7,9.874406 1.912,7.138006 -3.824,6.624703 V 280.75145 h 67.609 l 14.389,-674.46584 3.913,-1.67737 v -75.76574 l 6.41,-1.60465 1.172,-23.98874 c 9.954,-9.14375 20.976,-16.88248 37.392,-21.04623 l 3.513,-0.88922 v -4.71692 h 9.365 v 4.71692 l 3.507,0.88922 c 16.417,4.16436 27.442,11.90564 37.397,21.05027 l 1.168,23.9847 6.415,1.60465 v 75.76566 l 3.909,1.67331 14.392,674.46986 h 49.117 V 229.4635 l 2.781,-10.37559 v -62.80357 l -2.073,-3.59324 15.679,-27.70325 h 238.416 V 12.776253 h -16.758 l -1.597,-5.9537266 14.155,-14.1547782 V -25.338967 l 17.142,-4.591615 3.823,-14.267955 -3.941,-2.271556 0.563,-2.093692 h 39.767 v -11.127396 h 45.614 l 3.758,14.03352 h 178.632 l 8.687,-2.328143 8.16,-2.18668 h 5.781 l 7.425,1.988637 7.445,4.300578 h 83.535 83.533 l 7.442,-4.300578 7.428,-1.988637 h 5.777 l 8.164,2.18668 8.686,2.328143 h 178.632 l 3.76,-14.03352 h 45.612 v 11.127396 h 39.769 l 0.557,2.093692 -3.937,2.271556 3.82,14.267955 17.146,4.591615 v 18.0067152 l 14.15,14.1547782 -1.595,5.9537266 h -16.754 V 124.98785 h 238.4118 l 15.6823,27.70325 -2.0728,3.59324 v 62.80325 l 2.7762,10.37558 v 77.91594 h 40.7024 l -0.058,-4.70477 c -0.1835,-16.00497 -1.2608,-112.58742 -1.7461,-205.470607 -0.2431,-46.441592 -0.3383,-91.9608159 -0.097,-125.998534 0.121,-17.018855 0.3257,-31.173689 0.6352,-41.094118 0.1556,-4.960208 0.3353,-8.874994 0.5371,-11.47905 0.086,-1.093097 0.1692,-1.797544 0.247,-2.34832 -0.1749,0.370564 -0.616,0.886918 -1.8316,1.588463 0.887,-0.51204 1.3473,-1.414554 1.9114,-2.227112 0,0.0058 0.019,-0.0911 0,-0.05651 0,0.0058 0,0.04478 0,0.05266 1.182,-1.70526 1.9316,-3.652563 1.8076,-5.254479 -0.1845,-2.367088 -1.0033,-4.245191 -1.8595,-5.949702 -0.9322,-1.855307 -1.3521,-2.219317 -2.1468,-3.342666 l 0.6755,-1.168125 h 141.4631 v -53.23602 c 0,-2.32694 -1.0225,-3.53769 -1.5971,-4.37335 -0.5737,-0.83565 -1.0782,-1.50203 -1.6212,-2.44131 0.097,0.16693 -0.5948,-2.01316 -1.1147,-3.83578 h 37.731 v -68.4902 l -1.33,-1.35809 c 0,0 -0.592,-0.61924 -1.0908,-1.29342 -0.1595,-0.21609 -0.2162,-0.32448 -0.2998,-0.46481 0.039,-0.52582 0.1615,-1.15987 0.174,-1.73801 0.019,-1.08109 0,-2.27662 -0.019,-3.41542 -0.058,-2.2776 -0.1576,-4.33696 -0.1576,-4.33696 l -0.029,-0.48909 -0.4728,-1.76226 6.503,-3.75494 h 15.8571 v -13.80314 h 19.833 v -78.8654 l 1.1757,-0.67905 10.5055,-2.80912 v -13.67785 h 20.3309 v -88.37649 h 5.9134 v -8.70224 h 9.8054 l 34.9298,-238.08886 34.9305,238.08886 h 9.8015 v 8.70224 h 5.9133 v 88.37641 h 20.331 v 13.67783 l 10.5047,2.80913 1.1764,0.67905 v 78.86578 h 19.8338 v 13.80312 h 15.8524 l 6.5076,3.75495 -0.4733,1.76227 -0.024,0.49312 c 0,0 -0.1058,2.05935 -0.1574,4.33696 -0.023,1.13883 -0.039,2.33031 -0.023,3.41136 0.023,0.57823 0.1408,1.21213 0.1774,1.73804 -0.084,0.14023 -0.1391,0.24814 -0.299,0.46481 -0.4988,0.67421 -1.0954,1.2934 -1.0954,1.2934 l -1.33,1.3581 v 68.49021 h 37.7353 c -0.5202,1.82419 -1.2115,4.00268 -1.1152,3.83576 -0.5424,0.93938 -1.0468,1.60563 -1.6211,2.44132 -0.5736,0.83568 -1.5964,2.04676 -1.5964,4.37335 v 53.23604 h 141.4586 l 0.6753,1.168095 c -0.7947,1.123367 -1.2139,1.487358 -2.1461,3.342666 -0.8567,1.70453 -1.6753,3.582622 -1.8598,5.94971 -0.1241,1.602176 0.6285,3.549123 1.8112,5.25448 0,-0.0058 0,-0.04276 0,-0.04843 -0.016,-0.03508 0,0.06208 0,0.0567 0.5609,0.806417 1.0173,1.700225 1.8955,2.210929 -1.1931,-0.692723 -1.6425,-1.20481 -1.8152,-1.572299 0.08,0.550911 0.1576,1.253061 0.2434,2.344303 0.2006,2.604056 0.3867,6.518832 0.5409,11.479031 0.3095,9.920407 0.5146,24.075257 0.6349,41.094112 0.241,34.0377182 0.1463,79.556943 -0.097,125.99854 -0.4861,92.883183 -1.567,189.467353 -1.75,205.470613 l -0.056,4.70882 h 40.4598 v -716.75249 h 21.0705 v -131.354 h 12.3392 v -156.03799 h 13.4842 v -119.9963 h 14.4502 2.9583 110.336 v -106.14864 h -11.9111 v -12.91789 h 38.3214 0.5776 53.1916 v -19.05365 h 12.9141 v 19.05365 h 46.0454 v 12.91789 h -9.5271 v 106.14864 h 52.3914 4.5436 16.034 v 119.99629 h 13.4716 v 156.03803 h 12.3517 v 131.35405 h 21.0706 v 716.7523 h 46.7494 v -684.38061 l 13.233,-22.92978 v -747.72941 h 101.7477 v 47.9127 h 28.4786 v -20.359 h 16.7704 v -56.312 h 27.5496 v -84.9327 l 8.427,-2.2514 v -188.3167 h 23.9207 v -41.0941 l 46.4129,-47.553 h 0.8853 l 46.4129,47.553 v 41.0941 h 23.9239 v 188.3127 l 8.4238,2.2554 v 84.9327 h 27.5535 v 56.312 h 16.7705 v 20.359 h 32.5815 v 158.1076 h 34.4494 v -14.3731 h 11.0543 v 14.3731 h 27.6346 v -20.35924 h 15.2462 v 20.35924 h 9.276 v 541.70911 l 13.2334,22.92978 V 307.3837 h 46.7486 V -889.39018 h 12.0248 v -56.86159 h 62.3303 v -20.97351 l 120.2872,-94.03922 v -65.4142 h 6.2772 6.2813 v 65.4142 l 120.283,94.03922 v 20.97351 h 278.8435 v 56.86159 h 12.0288 V 307.38365 h 46.7485 v -1221.6841 l 26.976,-15.57759 v -201.66306 l 27.9215,-16.1192 v -269.923 h 96.6502 v -174.4488 h 108.5012 l 48.1027,-27.772 h 29.9304 l 15.1087,-15.1087 4.3248,-129.0299 4.3207,129.0299 15.1086,15.1087 h 29.9305 l 48.1029,27.772 h 108.5052 v 174.4488 h 96.65 v 269.923 l 27.9175,16.1192 v 201.66306 l 26.9756,15.57759 v 1221.6841 h 48.8386 V -1026.9607 h 108.8607 v -27.9054 l -4.535,-0.1171 c -33.824,-0.8734 -61.4806,-2.2292 -80.5755,-3.8519 -9.5474,-0.8115 -16.9749,-1.6985 -21.806,-2.5828 -0.9287,-0.1699 -1.2181,-0.3018 -1.9442,-0.4689 v -131.6977 l -0.056,-0.037 c 2.1104,-0.9401 5.3006,-2.0161 9.7572,-3.0478 9.552,-2.2111 23.7804,-4.2734 41.3972,-5.9981 35.2339,-3.4494 84.1267,-5.598 138.1202,-5.598 53.9938,0 102.8838,2.1486 138.1161,5.598 17.6163,1.7247 31.8447,3.787 41.3976,5.9981 4.6781,1.083 8.1668,2.2269 10.2421,3.1973 v 131.7259 c -0.563,0.1211 -0.7238,0.2145 -1.3867,0.3354 -4.8589,0.8874 -12.3297,1.7815 -21.9312,2.5949 -19.203,1.6267 -47.0126,2.9777 -81.0079,3.848 l -4.535,0.1172 v 27.8891 h 339.5288 v -40.694 h 190.2769 v 40.694 h 90.1994 V 307.38363 h 45.3663 V 158.01475 h 99.1318 v -670.4764 h 19.3567 v -141.27288 h 16.277 v -107.42192 h 17.5781 v -67.05538 h 31.2481 v -22.13344 h 48.1754 v -65.10309 h 0.4568 v 60.54781 h 29.2959 v 0.65074 h 15.7231 15.7189 v -0.65074 h 29.2958 v -60.54781 h 0.4608 v 65.10309 h 48.1755 v 22.13344 h 31.248 v 67.05538 h 17.5783 v 107.42192 h 16.2767 v 141.27288 h 19.3527 v 670.47643 h 99.1319 v 149.36887 h 34.2393 v -413.96861 l -0.6065,-2.25944 0.1281,-0.22229 2.5664,-2.56664 v -34.8251 l -2.8777,-0.76797 c 0.1079,-0.42832 0.5012,-0.76772 0.5012,-1.16812 v -11.28097 l -0.1664,-0.16583 0.2184,-0.12523 h 5.6342 v -47.86839 l -0.5094,-0.88115 0.2183,-0.81646 0.042,-0.27887 c 0,0 0.1481,-1.03718 0.2262,-2.25542 0.038,-0.60909 0.066,-1.27096 0.03,-2.02094 -0.036,-0.72202 0.059,-1.47598 -0.8002,-3.03548 l 0.02,-0.0128 c 0.4918,0.93168 0.3688,1.07 0.3598,0.88517 -0.019,-0.20695 0,-0.64768 0.025,-1.08324 0,-0.10548 0.02,-0.1031 0.02,-0.20612 l 1.2896,-1.28935 v -21.05432 l -1.4149,-0.81647 0.2587,-0.14956 v -24.42902 c 0.2129,-0.22657 0.5874,-0.59825 1.047,-0.99833 0.4832,-0.42086 0.6138,-0.50305 1.0145,-0.82051 h 4.8988 v 13.0594 h 15.4035 v -2.22709 h 18.4234 l 0.038,-4.6118 c 0,0 0.064,-7.40339 0.097,-14.93489 0.02,-3.76574 0.025,-7.56513 0.02,-10.50088 0,-1.46791 -0.02,-2.71485 -0.033,-3.66198 0,-0.47356 -0.019,-0.8703 -0.037,-1.21256 -0.02,-0.34227 0.2122,0.0418 -0.1987,-1.49148 v -0.004 c -0.1426,-0.53423 -0.3289,-0.53376 -0.4972,-0.86904 l 2.2393,-1.29744 v -12.6632 h 23.2451 v -56.78887 l -2.4616,0.33952 v -8.01914 l -2.8213,-4.88669 0.481,-1.7946 2.7406,-1.58039 12.5136,3.35075 v -7.38863 l 7.8737,-4.54714 v -30.92469 c 0,-1.09454 -0.3993,-2.08576 -0.9056,-2.9142 0.2282,-0.42064 0.5736,-0.77583 0.7277,-1.13174 l 7.1178,-4.11467 v -17.95821 l -1.7502,-1.75421 0.089,-0.32738 2.4779,-4.28847 3.9288,-1.05492 3.9327,1.05492 2.4776,4.28847 0.085,0.32738 -1.7502,1.75421 v 17.95821 l 7.1218,4.11871 c 0.1554,0.35575 0.4992,0.71128 0.7275,1.13174 -0.5059,0.82807 -0.9094,1.81613 -0.9094,2.91016 v 30.92469 l 7.8737,4.54714 v 7.38863 l 12.5138,-3.35479 2.7405,1.58443 0.4808,1.7946 -2.817,4.88261 v 8.02322 l -2.4617,-0.33952 v 56.78887 h 23.241 v 12.66331 l 2.2392,1.29743 c -0.1682,0.33475 -0.3539,0.33588 -0.4969,0.86905 -0.4122,1.5361 -0.1774,1.15305 -0.1946,1.49548 -0.02,0.34244 -0.028,0.73897 -0.037,1.21257 -0.02,0.94724 -0.031,2.19407 -0.035,3.66199 -0.019,2.93582 0,6.73511 0.02,10.50087 0.033,7.53156 0.097,14.9349 0.097,14.9349 l 0.04,4.61179 h 18.423 v 2.22709 h 15.4077 v -13.05941 h 4.8948 c 0.4008,0.31762 0.5305,0.3992 1.0147,0.82052 0.4593,0.4001 0.8341,0.77182 1.0467,0.99834 v 24.42933 l 0.2587,0.14954 -1.4147,0.81648 v 21.05432 l 1.2934,1.29342 c 0,0.10091 0.02,0.0986 0.02,0.20198 0.025,0.43552 0.031,0.87646 0.02,1.08323 0,0.18481 -0.1316,0.0468 0.3596,-0.88517 l 0.02,0.0128 c -0.8587,1.5595 -0.7628,2.31348 -0.8,3.03548 -0.04,0.74998 0,1.41186 0.03,2.02096 0.077,1.21823 0.2264,2.25539 0.2264,2.25539 l 0.041,0.27888 0.2183,0.81648 -0.5094,0.88115 v 47.86836 h 5.6344 l 0.2183,0.12524 -0.1663,0.16584 v 11.28098 c 0,0.39895 0.3935,0.73727 0.5011,1.16406 l -2.8776,0.77202 v 34.82511 l 2.5707,2.56662 0.1262,0.2223 -0.6024,2.25944 v 217.2043 h 315.8352 l 29.2269,29.22707 -4.1792,1.11959 v 71.81266 l -3.9893,2.29986 v 92.30547 h 46.4657 v -34.66749 l 6.6286,-4.40567 V -3.9689113 l -5.0724,-5.8365092 V -26.353012 h 260.0282 v 7.994911 h 401.8551 v -27.327385 l 1.8552,3.694326 h 10.5575 v -54.913428 l -3.2012,-3.686222 v -4.13892 l 0.7315,-3.12845 c 0.031,-0.1002 0.3743,-1.15862 0.8044,-2.23921 0.9571,0.0324 2.0028,0.0691 3.371,0.11317 3.3598,0.10806 7.7399,0.23652 12.0894,0.32337 4.3498,0.0869 8.6527,0.13182 11.9558,0.0645 1.6517,-0.0335 3.029,-0.0889 4.1957,-0.21017 0.5835,-0.0607 1.0738,-0.10933 1.8188,-0.31933 0.3725,-0.10513 0.8057,-0.18265 1.6248,-0.74372 0.4097,-0.28052 0.9698,-0.71079 1.4714,-1.58843 0.5017,-0.8777 0.7626,-2.31113 0.5012,-3.43162 0.2443,1.04823 0,-0.31645 -0.019,-1.38233 -0.02,-1.06584 0,-2.43185 0.019,-3.75896 0,-0.33492 0,-0.32543 0.02,-0.65076 h 169.5219 169.5217 c 0,0.32533 0.02,0.31584 0.02,0.65076 0.019,1.32714 0.031,2.693 0.019,3.75896 -0.019,1.06599 -0.26,2.43311 -0.019,1.38638 -0.2612,1.12069 0,2.55021 0.5053,3.42757 0.5015,0.8773 1.0577,1.30802 1.4673,1.58843 0.8189,0.56087 1.252,0.63871 1.6247,0.74372 0.7449,0.21004 1.2353,0.25859 1.8188,0.31933 1.1668,0.1214 2.5439,0.17662 4.1955,0.21017 3.3031,0.0673 7.6104,0.0221 11.96,-0.0645 4.3497,-0.0869 8.7297,-0.21526 12.0895,-0.32337 1.3664,-0.0441 2.4105,-0.0808 3.3668,-0.11317 0.4302,1.08054 0.7763,2.13901 0.8084,2.23921 l 0.7275,3.12845 v 4.13892 l -3.2012,3.686222 v 54.913428 h 10.5616 l 1.8511,-3.690285 v 27.323344 h 401.8552 v -7.994911 h 260.0282 v 16.5475915 l -5.0687,5.8365092 V 268.31048 l 6.6289,4.40567 v 34.6675 h 55.1721 l 0.8083,-3.64987 c 26.5585,-120.0202 84.8824,-217.980299 154.381,-308.6727408 h 21.6563 l 9.2886,-10.9899432 h 23.7986 l 12.1419,-8.298073 h 31.0014 v 9.587408 h 25.1528 v 11.1476088 h 24.199 l 10.3797,21.2766292 h 24.2757 l 7.7402,34.20267 h 20.3753 l 9.8099,48.454441 h 23.8794 v 5.55357 h 24.7285 v 8.07576 h 26.0056 v 9.59145 h 26.2684 c 0.051,0.11628 -5e-4,3.4e-4 0.048,0.13347 0.9933,2.68467 2.0633,8.09457 2.9223,14.6317 1.7186,13.07424 2.9097,30.99499 4.4665,46.16672 l 0.4284,4.17934 h 74.0883 v -69.14904 h 27.7113 V 80.466724 h 22.0284 l 4.325,-19.11421 h 29.9827 l 2.0049,-8.863923 h 85.7489 l 10.8731,12.869437 h 20.8927 l 8.6051,17.647006 14.5143,4.603739 7.6151,33.640847 11.6894,3.70641 c 16.2374,64.40335 21.7102,122.39377 22.6629,177.85224 l 0.077,4.57543 h 22.6591 v -85.12267 c 25.0717,-27.60505 28.7534,-49.07013 37.1653,-70.57582 h 19.2473 l 19.8988,-51.12616 h 22.5901 l 8.488,-17.400416 h 19.0292 l 0.6063,-13.799093 h 42.42 l 5.6869,11.656863 h 18.9525 c 49.9084,78.541036 65.0413,150.755086 72.1723,222.171776 l 0.4165,4.19552 h 78.106 v 93.05695 4.65224 h 9.3083 v -4.65224 -102.36548 h -79.0558 c -7.4498,-71.43829 -23.417,-144.9222 -74.3831,-224.229108 l -1.3744,-2.13819 h -18.3257 l -5.6832,-11.656855 h -57.1526 l -0.6022,13.799086 h -15.9373 l -8.4882,17.400412 h -23.1398 l -19.8985,51.126165 h -19.2231 l -1.1884,2.8738 c -10.014,24.23169 -11.6306,44.07709 -37.6989,72.13195 l -1.2449,1.34193 v 79.35081 h -4.3047 c -1.1897,-55.3281 -6.8143,-113.41357 -23.3138,-177.89667 l -0.6386,-2.50196 -11.6204,-3.68621 -7.6151,-33.640824 -15.7997,-5.011993 -9.4056,-19.287992 h -22.3842 l -10.8727,-12.869445 h -97.5111 l -2.0046,8.863907 h -29.9832 l -4.3246,19.11421 h -23.8959 v 39.158027 h -27.7153 v 69.14906 h -56.3524 c -1.3418,-14.00462 -2.4673,-29.87069 -4.0945,-42.25013 -0.8941,-6.80198 -1.8626,-12.44051 -3.4196,-16.64863 -0.7784,-2.10405 -1.5085,-4.01446 -3.7468,-5.6425 -1.1189,-0.81403 -2.8511,-1.40604 -4.4905,-1.22067 -0.6,0.0678 -0.9124,0.45151 -1.4187,0.65077 h -16.0828 v -9.59147 h -26.0056 v -8.075742 h -24.7283 V 91.13736 h -25.5773 l -9.8057,-48.458488 h -20.5531 l -7.7403,-34.2026476 h -25.8964 l -10.3798,-21.2766214 h -20.7067 v -11.147609 h -25.1528 v -9.587423 h -43.1838 l -12.1419,8.298049 h -25.2499 l -9.2842,10.994 h -21.9678 l -1.3986,1.814816 c -69.8329,90.835108 -128.9942,189.615564 -156.4991,310.503734 h -38.5275 v -30.35072 l -6.6288,-4.40567 V -0.49286497 l 5.0687,-5.83246823 V -40.940268 h -15.3189 l -1.2288,5.278733 h -245.7114 l -2.704,-11.616454 -11.3861,3.512422 -2.2877,9.829948 v 6.268987 h -383.2419 v -32.9335 l -12.4127,3.827691 v -36.652061 l 3.201,-3.686235 v -8.690103 l -1.0629,-4.57139 -0.051,-0.16584 c 0,0 -0.4856,-1.55651 -1.16,-3.20925 -0.3372,-0.82639 -0.7039,-1.67261 -1.241,-2.57471 -0.2684,-0.45105 -0.5556,-0.92214 -1.1235,-1.50764 -0.5681,-0.58546 -1.5685,-1.65718 -3.7712,-1.65718 -0.6354,0 -0.9391,0.0255 -1.9765,0.0607 -1.0373,0.0351 -2.4531,0.0835 -4.1227,0.13749 -3.3393,0.10732 -7.687,0.23775 -11.9762,0.32336 -4.289,0.0857 -8.5351,0.12689 -11.584,0.0645 -0.2164,-0.004 -0.281,-0.0187 -0.4851,-0.0241 v -2.24325 c -0.041,-2.75239 -0.1225,-5.31512 -0.1225,-5.31512 l -0.1445,-4.50673 h -178.5798 -178.5799 l -0.1408,4.50673 c 0,0 -0.085,2.56269 -0.1262,5.31512 -0.02,0.7684 0,1.48891 0,2.24325 -0.2048,0.005 -0.269,0.0207 -0.4849,0.0241 -3.0488,0.0622 -7.2911,0.0209 -11.5803,-0.0645 -4.2887,-0.0857 -8.6366,-0.21591 -11.9761,-0.32336 -1.6696,-0.0538 -3.0892,-0.10238 -4.1267,-0.13749 -1.0373,-0.0351 -1.3413,-0.0607 -1.9765,-0.0607 -2.2033,0 -3.1991,1.0718 -3.767,1.65718 -0.5679,0.58539 -0.8594,1.05666 -1.1277,1.50764 -0.537,0.90196 -0.9037,1.74839 -1.2408,2.57471 -0.6744,1.65262 -1.1559,3.20925 -1.1559,3.20925 l -0.051,0.16584 -1.0669,4.57139 v 8.690103 l 3.2052,3.686235 v 36.652061 l -12.4167,-3.827691 v 32.9335 h -383.238 v -6.268987 l -2.2878,-9.829948 -11.3903,-3.512422 -2.704,11.616454 h -245.7157 l -1.2287,-5.278733 h -15.3189 v 34.6149348 l 5.0726,5.83246823 V 263.31873 l -6.6288,4.40567 v 30.35073 h -27.8489 v -77.62089 l 3.9895,-2.29986 v -70.04633 l 12.8491,-3.44774 -43.3494,-43.34953 h -310.3824 v -206.67509 l 1.2812,-4.79776 -2.6636,-4.61989 -0.7115,-0.70733 v -23.82709 l 4.1228,-1.10343 v -12.29955 l -1.746,0.23848 v -3.33053 l 1.4348,-1.43086 v -7.2431 l -7.1218,-4.11062 v -36.74097 l 1.1965,-2.06139 -1.0592,-3.93277 c -0.02,-0.1629 -0.091,-0.64639 -0.1317,-1.32574 -0.025,-0.39248 -0.03,-0.78394 -0.02,-0.94987 0,-0.16602 0.3189,-0.23393 -0.4043,1.01858 1.0306,-1.78513 0.7954,-2.44314 0.8327,-3.20524 0.037,-0.76211 0.02,-1.45295 -0.025,-2.08966 -0.074,-1.27345 -0.2223,-2.36856 -0.2223,-2.36856 l -0.207,-1.56422 -0.869,-0.86904 v -11.82259 l 3.949,-2.27962 v -7.82515 l -2.7929,-1.60867 v -21.53532 l -0.4973,-0.40823 c -0.1555,-0.75442 -0.4302,-1.31957 -0.6387,-1.68952 -0.3741,-0.66384 -0.7164,-1.0664 -1.0547,-1.45106 -0.6768,-0.76932 -1.3703,-1.39774 -2.0534,-1.99265 -1.3665,-1.18979 -2.6958,-2.18263 -2.6958,-2.18263 l -1.2411,-0.9256 h -14.0376 l -0.1445,0.25059 v -0.55777 h -12.8128 v 11.1395 h -5.6789 c -0.019,-2.67791 -0.045,-5.09852 -0.067,-10.27857 -0.02,-3.75215 -0.025,-7.53546 -0.02,-10.42006 0,-1.41911 0.02,-2.60965 0.033,-3.46393 0.403,-0.33706 0.8204,-0.65074 0.8204,-0.65074 l 4.4947,-3.18905 -6.3984,-6.39432 -0.4242,-0.24656 V -316.821 h -23.2409 v -38.88723 c 0.2152,-0.15357 0.3813,-0.10457 0.598,-0.30718 1.0966,-1.02517 1.8634,-2.84133 1.8634,-4.36528 v -9.10642 l 3.5003,-6.06286 -2.4775,-9.24386 -2.8619,-1.65314 v -10.68278 l -6.9519,-25.93694 -6.7825,25.30237 v 6.58024 l -5.2182,-3.01528 v -23.47947 c 0.6237,-0.38128 1.3289,-0.99557 1.8958,-2.55851 0.45,-1.24061 0.2985,-2.81919 -0.1169,-3.80346 -0.4158,-0.98425 -0.9253,-1.5514 -1.3945,-2.02095 -0.4825,-0.48257 -1.2773,-2.27964 -1.2773,-2.27964 l -0.5335,-1.75822 -5.5133,-3.18504 v -8.73457 l 2.8214,-2.82934 -1.7906,-6.69744 -5.016,-8.69013 -9.2236,-2.46959 h -1.6895 l -9.2155,2.46959 -5.0243,8.69013 -1.7904,6.69744 2.8211,2.82934 v 8.73457 l -5.5132,3.18908 -0.5335,1.75823 c 0,0 -0.7931,1.79549 -1.2731,2.27559 v 0 c -0.4691,0.46922 -0.9825,1.0341 -1.3984,2.01692 -0.4159,0.98282 -0.5658,2.56226 -0.1169,3.80342 0.5653,1.56496 1.2673,2.18051 1.8916,2.56258 v 23.47947 l -5.2183,3.01528 v -6.58024 l -6.7781,-25.30237 -6.9522,25.93694 v 10.68278 l -2.8655,1.65314 -2.474,9.24386 3.5005,6.05883 v 9.11045 c 0,1.52403 0.7628,3.34016 1.8593,4.36528 0.218,0.20363 0.3859,0.15323 0.6023,0.30718 v 38.88723 h -23.2451 v 16.60418 l -0.4244,0.24656 -6.3983,6.39432 4.4946,3.18905 c 0,0 0.4175,0.31363 0.8204,0.65074 0.02,0.85438 0.031,2.04478 0.035,3.46393 0.02,2.88467 0,6.66791 -0.02,10.42006 -0.022,5.17864 -0.048,7.60004 -0.067,10.27857 h -5.683 v -11.1395 h -12.809 v 0.56587 l -0.1499,-0.25869 h -14.0335 l -1.2409,0.9256 c 0,0 -1.3333,0.99286 -2.7,2.18263 -0.6834,0.59489 -1.3764,1.22343 -2.0534,1.99265 -0.3383,0.38463 -0.6803,0.78735 -1.0549,1.45106 -0.2085,0.36989 -0.4836,0.93522 -0.6385,1.68952 l -0.4973,0.41228 v 21.53127 l -2.7889,1.60867 v 7.82111 l 3.9449,2.28366 v 11.82259 l -0.8649,0.86904 -0.2069,1.56825 c 0,0 -0.1462,1.09117 -0.2226,2.36453 -0.037,0.63666 -0.066,1.32767 -0.03,2.08966 0.037,0.76202 -0.1966,1.42028 0.8325,3.20524 -0.7232,-1.25251 -0.4129,-1.18449 -0.404,-1.01858 0,0.16601 0,0.55739 -0.02,0.94987 -0.044,0.67935 -0.1115,1.16285 -0.1317,1.32574 l -1.0549,3.93277 1.1924,2.06139 v 36.74097 l -7.1218,4.11062 v 7.2431 l 1.4348,1.43086 v 3.33053 l -1.746,-0.23848 v 12.29955 l 4.1228,1.10343 v 23.82709 l -0.7073,0.70733 -2.6679,4.61989 1.2854,4.80179 v 403.43541 h -15.6219 V 148.70625 h -99.132 v -670.47643 h -19.3527 v -141.27293 h -16.277 v -107.41788 h -17.578 v -67.05528 h -31.2482 v -22.13757 h -48.1755 v -65.1031 h -19.0737 v 60.54787 h -14.1305 v -68.36084 h -15.1693 v 69.01161 h -6.4106 -6.4144 v -69.01161 h -15.1652 v 68.36084 h -14.1305 v -60.54787 h -19.0738 v 65.1031 h -48.1756 v 22.13757 h -31.2481 v 67.05528 h -17.5784 v 107.41788 h -16.2765 v 141.27293 h -19.3568 v 670.47643 h -99.1279 v 149.36888 h -26.7534 V -1036.2692 h -90.1993 v -40.69 h -208.8942 v 40.69 H -6489.27 v -9.5552 c 31.8575,-0.8748 58.4576,-2.1458 77.0225,-3.7185 9.7611,-0.8269 17.4006,-1.7182 22.8206,-2.7081 2.7102,-0.4948 4.8377,-0.9885 6.6371,-1.6531 0.8995,-0.3323 1.7242,-0.6762 2.6514,-1.3581 0.9272,-0.6819 2.3699,-2.0806 2.413,-4.4138 v -0.1455 -0.1415 c -0.1097,-2.5203 -1.6426,-3.7505 -2.6758,-4.4298 v -125.263 c 0.792,-1.0235 1.4361,-2.215 1.54,-3.7672 l 0.019,-0.1577 v -0.1535 c 0,-2.268 -1.2074,-4.1297 -2.4371,-5.3152 -1.2296,-1.1855 -2.6084,-1.9951 -4.1915,-2.7525 -3.1663,-1.5147 -7.237,-2.7472 -12.3765,-3.9369 -10.2782,-2.3791 -24.7448,-4.4451 -42.5896,-6.1922 -35.6892,-3.4941 -84.7814,-5.6425 -139.0215,-5.6425 -54.24,0 -103.3347,2.1484 -139.0256,5.6425 -17.8453,1.7471 -32.3115,3.8131 -42.5896,6.1922 -5.1391,1.1897 -9.2106,2.4259 -12.3762,3.9409 -1.5829,0.7575 -2.9621,1.5664 -4.1916,2.7526 -1.2295,1.1862 -2.4355,3.0467 -2.4333,5.3151 v 0.1861 l 0.02,0.1857 c 0.1535,1.8736 1.0276,3.1887 2.0736,4.2925 v 125.2063 c -0.8147,0.6413 -1.7366,1.5611 -2.0291,3.3468 l -0.067,0.4284 0.019,0.4365 c 0.055,2.3245 1.489,3.7066 2.4129,4.3855 0.9239,0.6788 1.7431,1.0225 2.6394,1.3541 1.7926,0.6629 3.9122,1.1515 6.6084,1.6451 5.3928,0.9871 12.9882,1.879 22.6952,2.7041 18.4579,1.5686 44.9057,2.841 76.5905,3.7184 v 9.5714 h -108.861 V 298.07491 h -30.2213 V -919.67625 l -26.9758,-15.57345 v -201.6673 l -27.9214,-16.119 v -273.8557 h -96.6463 v -174.449 h -115.3198 l -48.1026,-27.7719 h -28.5684 l -9.7853,-9.7815 -5.7436,-171.4579 z m -2414.8325,1015.67191 c 2.2877,2.48896 5.7114,5.47682 5.7114,5.47682 l 0.9131,0.80031 1.1885,0.25057 c 0,0 4.4171,0.95963 6.6976,1.28528 0.2307,0.0334 0.099,7.9e-4 0.1901,0.0246 0.269,0.66594 0.7128,1.86127 1.0834,3.1001 0.4121,1.37438 0.6348,3.06932 0.6348,2.60303 0,2.16807 0.3015,5.15696 1.5114,8.47987 0.7548,2.0766 1.9886,4.28429 3.1325,6.34983 1.0452,1.88689 1.8143,3.19056 1.9687,3.45186 0.099,0.40575 1.038,2.74612 1.5845,4.50669 -0.4764,-0.33082 -0.6395,-0.71806 -1.5479,-0.84071 -1.7382,-0.23442 -3.4873,0.80619 -4.1269,1.51573 -1.2814,1.41908 -1.0555,1.84321 -1.1526,2.23115 -0.2576,1.03393 -0.2505,1.39689 -0.3634,2.29177 -0.1114,0.89639 -0.2394,1.97701 -0.3635,3.07584 -0.249,2.19774 -0.5147,4.5957 -0.5983,5.18577 -0.3777,2.64828 -0.5297,7.58269 -0.5297,7.58269 v 0.10508 8.46779 c 0,3.70257 0.9824,5.74704 0.9824,8.6093 0,1.57816 0.048,2.90036 0.071,4.14294 l -4.3694,-1.59655 c -0.056,-0.55546 -0.039,-0.53692 -0.1225,-1.19237 -0.2951,-2.3263 -0.6372,-4.96289 -1.5926,-7.44923 v -0.008 c -0.8829,-2.29406 -3.2263,-4.43955 -2.1667,-3.20525 1.0603,1.23438 0.3086,0.70278 -0.2832,-3.2012 -0.6285,-4.15288 -1.0389,-5.97693 -1.2163,-6.99247 -0.1773,-1.01563 -0.2068,-1.36237 -0.2068,-3.87217 v -11.07073 c 0,-4.54743 -0.5122,-7.14911 -0.7437,-11.3295 -0.2219,-3.99029 0.2466,-7.74275 -2.2073,-12.65122 -1.2434,-2.488 -2.699,-3.95162 -2.9703,-4.28842 -0.2719,-0.33679 -0.2211,0.0814 -0.5257,-1.94821 -0.4201,-2.79688 -0.1965,-6.21564 -0.5823,-9.89459 z m 13.3262,84.6538 2.8493,2.84954 c 0.2077,0.35596 0.6905,1.17821 1.3665,2.46151 0.3214,0.6113 0.5919,1.18219 0.8322,1.70171 -0.3636,0.55203 -0.8002,1.18665 -1.3046,1.85927 -1.2163,1.62017 -2.4619,3.11626 -2.4619,3.11626 l -1.2774,1.53593 -1.2776,-1.53593 c 0,0 -1.2448,-1.49609 -2.4611,-3.11626 -0.5059,-0.6743 -0.9458,-1.31065 -1.3093,-1.86334 0.2402,-0.51902 0.5107,-1.09127 0.8319,-1.70162 0.6802,-1.2915 1.1766,-2.12616 1.3786,-2.47368 z m 4345.2294,441.7325 c 0.492,1.83703 -0.043,2.55306 -0.2545,2.87786 v -0.14152 l -0.2069,0.44056 c 0.3396,-0.98849 0.781,-1.98037 0.4606,-3.17695 z m 190.8308,0.004 c -0.3205,1.19804 0.1206,2.18786 0.4609,3.17696 l -0.2103,-0.4446 v 0.14151 c -0.21,-0.32462 -0.7402,-1.04097 -0.2506,-2.8738 z m -6698.5442,257.728417 c -37.992,0 -63.603,16.208802 -79.201,35.702211 -15.598,19.493408 -21.556,41.809093 -21.556,55.867303 v 1.244925 l 4.334,7.505819 v 11.268845 l -7.142,4.12679 v 202.2289 h 235.009 V 105.15464 l -7.147,-4.1268 V 89.758997 l 4.337,-7.505822 V 81.00825 c 0,-14.058154 -5.957,-36.373895 -21.555,-55.867303 -15.599,-19.4934089 -41.213,-35.702212 -79.205,-35.702212 h -2.684 l -2.305,3.9893748 h -5.229 -7.438 -5.226 l -2.304,-3.9893748 z m -2.608,9.4459534 2.225,3.8519359 h 10.601 7.438 10.601 l 2.228,-3.8519359 c 33.83,0.72412021 55.582,14.8960176 69.327,32.0725776 13.739,17.169935 19.123,37.522229 19.401,48.996052 l -4.221,7.311814 v 19.138456 l 7.143,4.12276 v 187.54865 h -216.392 V 110.52647 l 7.143,-4.12278 V 87.265242 l -4.221,-7.311813 c 0.278,-11.473782 5.662,-31.826124 19.401,-48.996051 13.746,-17.177117 35.496,-31.34933999 69.326,-32.072578 z m -1025.655,63.7692346 c -19.16,2.56e-4 -36.516,3.037215 -49.501,8.196995 -6.491,2.579911 -11.913,5.678049 -15.948,9.470215 -4.037,3.792162 -6.78,8.553414 -6.78,13.843551 0,5.290179 2.743,10.051264 6.78,13.843544 4.035,3.79229 9.457,6.89025 15.948,9.47019 12.985,5.15993 30.341,8.19677 49.501,8.19702 19.161,-1.7e-4 36.523,-3.03711 49.506,-8.19702 6.493,-2.57994 11.913,-5.67792 15.95,-9.47019 4.037,-3.79228 6.779,-8.553305 6.779,-13.843544 0,-5.290158 -2.742,-10.051389 -6.779,-13.843551 -4.037,-3.792166 -9.457,-6.890304 -15.95,-9.470215 -12.983,-5.15978 -30.345,-8.196812 -49.506,-8.196995 z m 0,9.308531 c 18.162,1.61e-4 34.593,2.978454 46.066,7.538165 5.738,2.279867 10.212,4.969316 13.016,7.60285 2.803,2.633511 3.843,4.935636 3.843,7.061215 0,2.125578 -1.04,4.427673 -3.843,7.061214 -2.804,2.63354 -7.278,5.32294 -13.016,7.60282 -11.473,4.55985 -27.904,7.53802 -46.066,7.53818 -18.16,-2.1e-4 -34.586,-2.97833 -46.06,-7.53818 -5.737,-2.27988 -10.213,-4.96929 -13.016,-7.60282 -2.802,-2.63351 -3.844,-4.935636 -3.844,-7.061214 0,-2.125558 1.042,-4.427734 3.844,-7.061215 2.803,-2.633515 7.279,-5.322983 13.016,-7.60285 11.474,-4.559711 27.901,-7.537926 46.06,-7.538165 z m 73.285,57.273894 -6.62,3.07992 c -9.82,4.57181 -21.414,8.13027 -34.042,10.39582 l -3.831,0.68712 v 0.0207 l -4.216,0.56586 c -8.014,1.07532 -16.269,1.62567 -24.559,1.64908 -8.298,-0.0241 -16.559,-0.5871 -24.583,-1.66928 l -4.814,-0.64672 -3.237,-0.58608 c -12.627,-2.26556 -24.222,-5.81987 -34.041,-10.39175 l -6.621,-3.08397 v 7.30371 37.93742 h 43.433 v 1.78652 h 28.983 1.732 28.98 v -1.79058 h 43.436 z m -9.308,14.03352 v 21.91494 h -25.88 v -14.23159 c 9.274,-1.8822 17.892,-4.5014 25.88,-7.68366 z m -127.948,0.0241 c 7.987,3.18164 16.605,5.80158 25.877,7.68366 v 14.21105 h -25.877 z m 43.435,10.25836 c 6.78,0.72624 13.603,1.37019 20.525,1.39043 h 0.02 0.02 c 6.918,-0.0186 13.743,-0.65742 20.525,-1.37829 v 13.41073 h -19.672 -1.735 -19.67 z"
       style="color:#000000;font-style:normal;font-variant:normal;font-weight:normal;font-stretch:normal;font-size:medium;line-height:normal;font-family:sans-serif;font-variant-ligatures:normal;font-variant-position:normal;font-variant-caps:normal;font-variant-numeric:normal;font-variant-alternates:normal;font-feature-settings:normal;text-indent:0;text-align:start;text-decoration:none;text-decoration-line:none;text-decoration-style:solid;text-decoration-color:#000000;letter-spacing:normal;word-spacing:normal;text-transform:none;writing-mode:lr-tb;direction:ltr;text-orientation:mixed;dominant-baseline:auto;baseline-shift:baseline;text-anchor:start;white-space:normal;shape-padding:0;clip-rule:nonzero;display:inline;overflow:visible;visibility:visible;opacity:1;isolation:auto;mix-blend-mode:normal;color-interpolation:sRGB;color-interpolation-filters:linearRGB;solid-color:#000000;solid-opacity:1;vector-effect:none;fill:#000000;fill-opacity:1;fill-rule:nonzero;stroke:none;stroke-width:9.30825424;stroke-linecap:square;stroke-linejoin:miter;stroke-miterlimit:4;stroke-dasharray:none;stroke-dashoffset:0;stroke-opacity:1;color-rendering:auto;image-rendering:auto;shape-rendering:auto;text-rendering:auto;enable-background:accumulate" />
  </g>
</svg>
